<svg xmlns="http://www.w3.org/2000/svg" version="1.1" xmlns:xlink="http://www.w3.org/1999/xlink" xmlns:svgjs="http://svgjs.dev/svgjs" width="128" height="128" viewBox="0 0 128 128"><g transform="matrix(0.44782608695652176,0,0,0.44782608695652176,35.33914745348652,12.5)"><svg viewBox="0 0 125 225" data-background-color="#ffffff" preserveAspectRatio="xMidYMid meet" height="230" width="128" xmlns="http://www.w3.org/2000/svg" xmlns:xlink="http://www.w3.org/1999/xlink"><g id="tight-bounds" transform="matrix(1,0,0,1,0.000009038293200092085,0)"><svg viewBox="0 0 125 225" height="225" width="125"><g><svg></svg></g><g><svg viewBox="0 0 125 225" height="225" width="125"><g><path d="M64.538 160.686c-0.549-0.686-1.097-0.274-1.097-0.686-3.291 0.823-9.462-1.371-12.068-1.097 0.549-0.823-0.823-0.686-0.823-1.234-0.549 0.823-1.097 0-1.92 0.274-0.823-2.057-4.114-0.549-4.525-3.154-1.92 0-2.606-1.097-4.526-2.194 0.137-0.137 0.274-0.137 0.412-0.274-0.96-0.137-0.96-0.686-1.783-0.686l0.274-0.548c-1.508-0.274-2.057-2.606-4.251-3.429-0.686-0.137-2.194-2.468-3.017-3.017-0.411-0.274-1.097-0.274-0.137-0.411-0.137-0.137-0.137-0.411 0-0.549-0.96-0.274-1.097-1.097-2.331-1.508-0.137-0.411 0.274-0.686 0-0.96-0.274-0.137-0.686 0.137-0.96 0-0.137 2.468 2.606 2.743 3.428 4.8-0.274-0.274-0.686-1.097-0.96-0.549-0.137 0.411 1.097 1.92 1.097 1.097-0.411 0.274-0.549-0.411-0.274-0.548 0.411 0.686 1.234 0.549 1.234 1.097-0.411 0.411-0.96-0.411-0.822 0.274 1.234 0.686 1.097 1.371 1.782 2.331-0.549-0.686-0.686 0.549-1.234 0-0.137-2.057-2.468-1.646-2.468-3.702-0.274-0.686-0.549-0.137-0.96-0.412 0.549-0.549-1.646-2.468-1.646-1.783-0.686-0.823-0.274-1.097-0.411-1.645-0.549-0.137-0.137 0.549-0.549 0.137 0.549-0.96-0.686-2.194-1.508-3.154l0.548-0.274c-0.96-0.549-1.097-1.646-1.783-2.88-0.823 1.234 1.646 3.977 1.235 4.525 0 0.137 0.96 1.234 1.234 1.783 1.097 1.92 1.92 4.251 3.428 5.348-0.274-0.137-0.137-0.96 0.275-0.548 0 0.411-0.274 0.823-0.275 1.234 0.823 0.823 1.508 1.508 2.332 2.331-1.783-1.097-3.566-2.194-4.8-3.84 0.686-0.137 1.371 1.097 1.92 0.96-1.371-1.097-0.96-1.508-1.509-2.88-0.549-0.411 0.137 0.549-0.411 0.686-1.783-1.646-3.154-2.606-3.977-4.114 0.137-0.137 0.274-0.274 0.274-0.548-0.137-0.137-0.137-0.137-0.274-0.275 0.823 0.823 1.097 1.508 2.057 1.646-0.411-0.411 0-0.549-0.549-0.96-0.274-0.549-0.686 0.274-0.96-0.137 0.274-0.411 0-0.96 0-1.372-0.274 0-0.549 0-0.685-0.411-0.274-0.137-0.411 0-0.549 0.274-0.137-0.137-0.137-0.411-0.274-0.548v-0.137c-0.137-0.137-0.274-0.411-0.411-0.549-1.097-2.88-1.783-6.72-3.292-9.188 0.411-1.646-0.274-4.937-0.685-5.76 0.411-0.686 0.137-3.84-0.137-4.388-0.686 0.274 0.137 1.783-0.549 2.194-0.686-3.017 0.411-6.445 0.137-9.188 0.274 0 0.549 0 0.549-0.137-0.411-0.411 0.274-1.234 0.137-2.194 0.549-1.234-1.234 1.783-1.234 3.017-0.137 0.274-0.686 0-0.549 0.686 0 0.96 0.274 2.88-0.274 4.251-0.274 0-0.274-0.274-0.549-0.137-0.137 0.686-0.274 1.508-0.411 2.194-0.137-0.274-0.274-0.686-0.274-0.823-0.686-3.428 0-7.405-0.275-10.285 0.549 0 0.549-0.823 0.96-1.097-0.137 1.097-0.411 2.468 0.275 2.743 0.549-5.348 1.646-11.245 4.114-17.005 1.783-4.251 4.388-8.502 7.542-11.931 0.274 0.411-0.137 1.371 0 1.783 2.743-2.88 4.525-6.308 7.542-8.228 0.137 0.686-1.234 1.234-1.234 1.782 1.234-1.234 1.646-0.823 3.017-1.234 0.411-0.549-0.549 0-0.686-0.548 0.823-0.549 1.371-1.234 1.92-1.646 0 0.137-0.137 0.137-0.137 0.274 1.508-0.411 1.646-1.234 2.743-1.508-0.137-0.137-0.411-0.274-0.823-0.137 0.274-0.137 0.686-0.411 1.097-0.549-0.137 0-0.137 0.137-0.274 0.137 0.823-0.411 0.137 0.137 0.137 0.412 0.137 0 0.274-0.137 0.274-0.137-0.823 0.549-1.371 0.823-1.645 1.782 0.411-0.274 0.549 0 1.097-0.411 0.549-0.274-0.137-0.686 0.274-0.96 0.411 0.274 0.96 0.137 1.371 0.137 0-0.274 0.137-0.549 0.412-0.685 0.137-0.274 0-0.411-0.137-0.412 0.137-0.137 0.274-0.137 0.548-0.274 0 0 0.137 0 0.137 0.137 2.331-1.097 4.937-2.057 7.406-2.88 1.508-0.137 3.428-0.137 4.251-1.097-0.274 0-0.549 0.137-0.686 0 0.137 0 0.411-0.137 0.549-0.137 0.274 0.274 0.686 0 0.274 0.548 0.137 0 0.137 0 0.274-0.137 0 0.137 0 0.137 0.137 0.275 0.137 0 0.274-0.137 0.412-0.412 0.137 0 0.274 0 0.411-0.137l-0.137 0.137c1.097-0.274 2.057-0.137 3.566-0.411 0-0.137 0-0.274 0-0.412 0.274 0 0.411-0.137 0.685-0.137v0.137c0.549-0.274 1.097 0.274 1.097 0 0.137 0 0.137 0 0.275 0 0 0.274-0.137 0.411-0.138 0.549 0.686 0 1.097 0 1.372-0.411-0.137-0.137-0.274-0.137-0.412-0.138 0.274 0 0.549-0.137 0.823-0.274 0.411 0.137 0.549 0.274 0.549 0.823 0.686-1.234 2.88 0.274 3.84 0 0.411 0 0.274-0.549 0.548-0.823 0.137 0 0.274 0 0.411 0 0.686 0.549 1.646 1.097 2.88 1.234-1.097-0.274 0.137-0.411 0.275-0.548-0.274 0-0.274-0.137-0.275-0.274 0.411 0 0.823 0.137 1.234 0.137 0 0.274 0.137 0.411 0.412 0.411 0.274 0 0.274-0.137 0.274-0.411 0.411 0 0.686 0 1.097 0.137-0.137 0.549 0.686 0.686 0.96 1.097-1.097-0.274-2.331-0.686-2.743 0 4.388 0.96 9.188 2.331 13.851 4.662 0 0 0 0 0 0.138h0.137c0.823 0.411 1.646 0.823 2.469 1.234 0.549 0.274 0.96 0.549 1.508 0.96 0 0.137 0 0.274 0.274 0.274h0.138c0.549 0.411 1.097 0.686 1.645 1.097 0.549 0.823 1.097 1.92 2.057 1.646 2.057 3.154 4.251 4.388 6.034 7.679 0.137-0.549 0.549 1.234 1.234 1.372-1.097-0.137 0.686 0.686-0.411 0.548 0.96 0.96 1.234 1.371 1.371 2.469-0.274-0.549-0.411-0.686-0.548-0.138-0.137 0.823 0.96-0.137 1.371 0.686-0.823 0-0.549 0.549-0.411 1.234 0.411-0.411 0.274-0.823 0.685-0.685 0.549 0.549-0.274 0.686-0.137 1.097 0.411-0.549 0.549-0.274 1.097 0-0.686 0.137 0.411 1.097-0.411 0.685 0.549 0.686 0.686 1.097 0.411 1.783-0.549-0.823-0.137-1.371-0.96-1.234 1.646 1.371 0.823 4.525 2.743 4.8-1.234 0.274 0 0.823-0.686 0.96 0.823 0.274 0.411 1.371 1.372 1.645-0.137 0.686-0.411 1.097-0.549 1.783 0.411 0.549 0.549 1.646 1.234 1.783-0.411 0.411-0.137 1.508-0.548 1.92 0.549-0.274 0.823-0.274 1.234 0.274-0.686 0.549-0.137 1.097-0.548 1.234 1.234 3.154-0.274 9.599 0.411 12.068-0.823-0.411-0.549 0.96-1.097 0.96 0.96 0.411 0.137 1.097 0.548 1.783-1.92 1.097 0 4.114-2.605 4.799 0.274 1.92-0.823 2.743-1.646 4.8-0.137-0.137-0.137-0.274-0.274-0.411-0.137 0.96-0.686 1.097-0.411 1.92l-0.549-0.275c0 1.508-2.331 2.331-2.88 4.663-0.137 0.686-2.194 2.468-2.743 3.428-0.274 0.411-0.137 1.097-0.411 0.137-0.137 0.137-0.411 0.137-0.548 0.138-0.137 0.96-0.96 1.234-1.235 2.468-0.274 0.137-0.686-0.274-0.96 0.137 0 0.274 0.274 0.686 0.138 0.96 2.468-0.137 2.468-3.017 4.388-3.977-0.137 0.411-0.96 0.823-0.412 1.097 0.411 0 1.646-1.371 0.96-1.234 0.411 0.274-0.411 0.549-0.548 0.411 0.686-0.549 0.411-1.234 0.96-1.371 0.411 0.274-0.411 0.96 0.411 0.823 0.549-1.234 1.234-1.371 2.057-2.057-0.549 0.549 0.686 0.686 0.137 1.234-2.057 0.411-1.371 2.743-3.428 3.017-0.549 0.411-0.137 0.549-0.274 0.96-0.686-0.411-2.194 1.92-1.646 1.783-0.686 0.686-1.097 0.411-1.646 0.548-0.137 0.549 0.549 0.137 0.275 0.549-0.96-0.411-2.194 0.96-3.017 1.92l-0.412-0.412c-0.411 1.097-1.508 1.234-2.742 2.057 1.371 0.686 3.703-2.194 4.388-1.782 0.137 0 1.234-1.097 1.646-1.509 1.783-1.371 3.977-2.468 4.799-3.977-0.137 0.274-0.96 0.274-0.548-0.137 0.411-0.137 0.823 0.137 1.234 0.137 2.194-3.017 4.937-5.485 6.994-9.051 0.137-0.137 0.274-0.411 0.411-0.685-0.274 0.823-0.686 1.508-0.96 2.331-2.194 1.508-3.017 5.897-5.622 6.582 0.137 1.508-1.234 1.92-1.92 3.703-0.411 0.549-0.686-0.411-1.097 0.274 0.411 1.92-3.428 1.783-3.291 3.566-0.274 0.137-0.686 0.274-0.96 0.548h-0.138c-0.137 0.137-0.137 0.137-0.274 0.275-0.686 0.411-1.234 0.823-1.783 1.234-1.92 1.097-4.525 1.92-6.582 3.017v-0.137c-0.549 0.274-1.234 0.137-1.097 0.685-0.411 0.274-0.823 0.549-1.234 0.823-0.137 0-0.137 0-0.275 0 0 0-0.137-0.137-0.274-0.137-0.274 0-0.274 0-0.411 0.137-1.783 0.137-4.114 0.96-4.8 1.509-0.686-0.411-3.84 0.274-4.388 0.548 0.274 0.411 1.097 0 1.782 0-0.411 0.137-0.823 0.274-0.959 0.549-0.137 0-0.137 0-0.275 0-0.137-0.411-0.549 0-0.685-0.137h0.137c-0.137-0.549-0.549-0.823-1.234-0.686 0 0.274 0 0.411-0.138 0.686 0.274 0 1.097-0.411 1.097 0-0.137 0-0.137 0.137 0 0.137-0.274 0.274-0.686 0.274-0.959 0.411-0.549 0-1.234 0-1.783 0-0.137-0.137-0.274-0.137-0.549-0.274-0.137 0.137-0.411 0.137-0.548 0.274-0.823 0-1.783 0.137-2.469 0.274 0-0.274 0-0.549-0.274-0.548-0.411 0.549-1.234-0.137-2.194 0.137-0.96-0.274 0.549 0.411 1.92 0.686-0.137 0.137-0.274 0.274-0.686 0.411M45.339 162.606c-1.92-1.783-5.897-2.606-6.582-3.977-1.097-0.137-2.743-2.194-4.114-2.468 0.686 0 0.137-0.411 0-0.686-0.274 0.274-0.549 0.411-0.823 0.411 0-1.097-1.097-1.783-2.057-2.468 0.686 0.411 1.234 0.686 2.057 0.823 0-0.274 0-0.549 0.274-0.549 0.96 0.96 2.057 1.92 3.291 2.88 1.646 1.508 10.148 5.348 11.657 6.034 0 0-0.274 0.549-0.137 0.548 0.686 0.411 1.234-0.411 1.371 0.549-2.194 0.274-3.017-1.234-4.937-1.097M108.558 130.791v0.137 0c-0.137 0 0-0.137 0-0.137M53.156 67.297c-0.137 0.137-0.274 0.137-0.274 0.137 0-0.137 0.137-0.137 0.274-0.137M50.55 67.983c0 0.137 0 0.137 0 0 0 0.137 0 0.137 0 0 0 0.137 0 0 0 0M41.499 70.863v0c0.137-0.137 0.137-0.137 0.275-0.137-0.137 0-0.274 0.137-0.275 0.137M63.441 66.337c-0.274 0-0.411 0-0.549-0.137 0.137 0 0.274 0 0.412 0h0.137c0 0 0 0 0 0.137M65.909 66.611c-0.137-0.137-0.549-0.274-0.96-0.274 0-0.137 0.137-0.274 0.138-0.274 0.137 0 0.274 0 0.411 0 0 0 0.137 0 0.137 0.137 0 0 0 0 0-0.137 0.137 0 0.137 0 0.274 0 0.137 0.274 0.274 0.411 0 0.548M70.435 67.023c-0.686 0.137-1.097-0.137-1.783-0.549 0.411 0 0.96 0.137 1.371 0.275 0.137 0 0.274 0.137 0.412 0.274M119.255 86.496c-0.274 0.137-0.411 0.137-0.686-0.411-2.194-4.663-6.171-11.382-11.931-17.005-5.623-5.76-13.165-10.422-20.021-12.891 0.411 0.137 0.96 0.411 0.685 0.686-6.034-2.331-11.794-3.703-17.279-4.251-14.811-2.331-30.307 0.823-42.237 8.502 0.137 0.274 0.137 0.411-0.274 0.686-4.388 2.743-10.559 7.542-15.497 13.85-4.937 6.308-8.777 14.262-10.422 21.393 0.137-0.411 0.274-1.097 0.549-0.822-3.566 14.125-2.606 26.193 2.331 36.615 0.274-0.274-0.686-1.646 0.137-1.509 0.549 1.508 1.234 3.154 2.057 4.663 0.96 2.194 2.057 5.074 3.566 5.759-3.84-7.542-6.445-16.182-6.72-23.861 0.549 1.097 0.411 3.428 1.234 4.388 0.274-5.211-0.96-12.205 0.823-17.142-0.411 2.606-0.686 6.171-0.411 9.737 0 2.606 1.234 9.874 2.057 10.559-0.137-0.137-0.137-0.823 0-0.822 0.411 0.823-0.549 1.234 0.137 1.371 0-0.274 0.137-0.274 0.274-0.274 1.371 3.017 3.154 7.68 4.526 10.01 1.646 3.017 3.84 5.76 6.308 8.229 0 0.137 0.137 0.137 0.137 0.274 0.274 0.686 1.234 1.508 1.508 2.057 0.137 0.274-0.137 0.686 0 0.96 2.057 3.84 5.074 7.68 8.777 10.696 2.331 2.743 6.034 5.623 10.559 8.091 4.388 2.331 9.462 4.251 14.125 5.348 3.291 0.823 7.268 0.96 9.737 1.509 3.291 0.686 9.051-0.274 11.931-0.823 17.279-2.606 34.421-14.399 43.06-31.404 8.914-17.142 8.639-38.123 0.96-54.168" fill="#bb84e8" fill-rule="nonzero" stroke="none" stroke-width="1" stroke-linecap="butt" stroke-linejoin="miter" stroke-miterlimit="10" stroke-dasharray="" stroke-dashoffset="0" font-family="none" font-weight="none" font-size="none" text-anchor="none" style="mix-blend-mode: normal" data-fill-palette-color="tertiary"></path></g><g transform="matrix(1,0,0,1,45.90747899159664,84.69)"><svg viewBox="0 0 33.18504201680672 55.62" height="55.62" width="33.18504201680672"><g><svg viewBox="0 0 33.18504201680672 55.62" height="55.62" width="33.18504201680672"><g><svg viewBox="0 0 33.18504201680672 55.62" height="55.62" width="33.18504201680672"><g id="textblocktransform"><svg viewBox="0 0 33.18504201680672 55.62" height="55.62" width="33.18504201680672" id="textblock"><g><svg viewBox="0 0 33.18504201680672 55.62" height="55.62" width="33.18504201680672"><g transform="matrix(1,0,0,1,0,0)"><svg width="33.18504201680672" viewBox="0.6 -35.2 21.299999999999997 35.7" height="55.62" data-palette-color="#5f1c92"><path d="M7.8 0.5Q5.55 0.5 3.95-0.43 2.35-1.35 1.53-2.65 0.7-3.95 0.6-5.1L0.6-5.1Q0.6-6.1 1.15-7.15 1.7-8.2 2.45-8.9 3.2-9.6 3.6-9.6L3.6-9.6Q3.85-9.6 3.85-9.3L3.85-9.3Q4.1-6.55 5.35-4.28 6.6-2 9.85-2L9.85-2Q12.45-2 14-3.6 15.55-5.2 15.55-8.05L15.55-8.05Q15.55-9.75 14.9-11.2 14.25-12.65 12.75-14.45L12.75-14.45 7.85-20.25Q7.05-21.3 6.6-22.43 6.15-23.55 6.15-25.15L6.15-25.15Q6.15-27.75 7.35-30.05 8.55-32.35 10.85-33.77 13.15-35.2 16.2-35.2L16.2-35.2Q18.7-35.2 20.3-34.18 21.9-33.15 21.9-31.25L21.9-31.25Q21.9-29.8 20.7-27.9L20.7-27.9Q20.25-27.15 19.7-27.15L19.7-27.15Q19.3-27.15 19.18-27.53 19.05-27.9 18.95-28.9L18.95-28.9Q18.8-32.9 14.65-32.9L14.65-32.9Q12.15-32.9 10.75-31.63 9.35-30.35 9.35-28.15L9.35-28.15Q9.35-25.95 11.2-23.7L11.2-23.7 16-18.15Q19.1-14.5 19.1-10.5L19.1-10.5Q19.1-7.6 17.48-5.08 15.85-2.55 13.23-1.03 10.6 0.5 7.8 0.5L7.8 0.5Z" opacity="1" transform="matrix(1,0,0,1,0,0)" fill="#5f1c92" class="wordmark-text-0" data-fill-palette-color="primary" id="text-0"></path></svg></g></svg></g></svg></g></svg></g></svg></g></svg></g></svg></g><defs></defs></svg><rect width="125" height="225" fill="none" stroke="none" visibility="hidden"></rect></g></svg></g></svg>