<svg xmlns="http://www.w3.org/2000/svg" version="1.1" xmlns:xlink="http://www.w3.org/1999/xlink" xmlns:svgjs="http://svgjs.dev/svgjs" width="2000" height="1247" viewBox="0 0 2000 1247"><g transform="matrix(1,0,0,1,-1.2121212121212466,0.504858299595071)"><svg viewBox="0 0 396 247" data-background-color="#35185a" preserveAspectRatio="xMidYMid meet" height="1247" width="2000" xmlns="http://www.w3.org/2000/svg" xmlns:xlink="http://www.w3.org/1999/xlink"><g id="tight-bounds" transform="matrix(1,0,0,1,0.2400000000000091,-0.09999999999999432)"><svg viewBox="0 0 395.52 247.2" height="247.2" width="395.52"><g><svg></svg></g><g><svg viewBox="0 0 395.52 247.2" height="247.2" width="395.52"><mask id="bef77c95-f174-4bbb-ad04-d0239be34546"><rect width="395.52" height="247.2" fill="white"></rect><g transform="matrix(1,0,0,1,82.22414634146341,37.08)" id="clone"><svg viewBox="0 0 231.07170731707316 173.04" height="173.04" width="231.07170731707316"><g><svg viewBox="0 0 231.07170731707316 173.04" height="173.04" width="231.07170731707316"><g><svg viewBox="0 0 231.0717073170732 173.04000000000002" height="173.04" width="231.07170731707316"><g><svg viewBox="0 0 231.0717073170732 173.04000000000002" height="173.04000000000002" width="231.0717073170732"><g id="SvgjsG1324"><svg viewBox="0 0 231.0717073170732 173.04000000000002" height="173.04000000000002" width="231.0717073170732" id="SvgjsSvg1323"><g><svg viewBox="0 0 231.0717073170732 173.04000000000002" height="173.04000000000002" width="231.0717073170732"><g transform="matrix(1,0,0,1,0,0)"><svg width="231.0717073170732" viewBox="-0.3500000000000001 -38.5 55.75 42" height="173.04000000000002" data-palette-color="#ffffff"><path d="M3.9-26.35L3.9-26.35Q3.9-31.2 6.35-33.35 8.8-35.5 14.3-35.5L14.3-35.5Q18.15-35.5 20.5-33.5 22.85-31.5 23.9-27.4L23.9-27.4 19.25-23.9 16.8-23.9 22.2-27.95Q21.15-31.3 19.18-32.65 17.2-34 14.3-34L14.3-34Q12.3-34 10.93-33.75 9.55-33.5 8.18-32.77 6.8-32.05 6.1-30.45 5.4-28.85 5.4-26.35L5.4-26.35Q5.4-24.15 7.43-22.45 9.45-20.75 12.35-19.55 15.25-18.35 18.18-17.1 21.1-15.85 23.13-13.9 25.15-11.95 25.15-9.4L25.15-9.4Q25.15-4.4 22.68-1.95 20.2 0.5 14.2 0.5L14.2 0.5Q9.3 0.5 6.5-1.48 3.7-3.45 2.65-7.6L2.65-7.6 4.05-8.2Q5.05-4.15 7.48-2.58 9.9-1 14.2-1L14.2-1Q19-1 21.33-2.85 23.65-4.7 23.65-9.4L23.65-9.4Q23.65-11.6 21.63-13.3 19.6-15 16.68-16.2 13.75-17.4 10.85-18.65 7.95-19.9 5.93-21.85 3.9-23.8 3.9-26.35ZM48.2-18.4L45.4-16.8 44.65-18.1 47.45-19.7Q50.9-21.6 50.9-25.75L50.9-25.75Q50.9-33.5 39.1-33.5L39.1-33.5 34.5-33.5 34.5 0 33 0 33-35 39.1-35Q45.7-35 49.05-32.58 52.4-30.15 52.4-25.75L52.4-25.75Q52.4-20.75 48.2-18.4L48.2-18.4Z" opacity="1" transform="matrix(1,0,0,1,0,0)" fill="black" class="wordmark-text-0" id="SvgjsPath1322" stroke-width="5" stroke="black" stroke-linejoin="round"></path></svg></g></svg></g></svg></g></svg></g></svg></g></svg></g></svg></g></mask><g mask="url(#bef77c95-f174-4bbb-ad04-d0239be34546)"><g><path d="M129.093 62.83v0c0-22.202 5.608-38.224 16.824-48.067 11.216-9.842 29.412-14.763 54.59-14.763v0c17.624 0 31.816 4.578 42.573 13.733 10.758 9.156 18.54 23.118 23.347 41.887v0l-31.93 24.033h-16.824l37.08-27.81c-4.807-15.336-11.719-26.093-20.737-32.273-9.064-6.18-20.234-9.27-33.509-9.27v0c-9.156 0-16.869 0.572-23.141 1.717-6.317 1.144-12.612 3.388-18.883 6.729-6.317 3.296-11.078 8.606-14.283 15.931-3.204 7.324-4.807 16.709-4.807 28.153v0c0 10.071 4.646 18.998 13.94 26.78 9.247 7.782 20.508 14.42 33.784 19.913 13.276 5.493 26.62 11.101 40.032 16.824 13.367 5.722 24.697 13.047 33.99 21.973 9.247 8.927 13.871 19.227 13.871 30.9v0c0 22.889-5.654 39.941-16.961 51.157-11.353 11.216-30.763 16.823-58.229 16.823v0c-22.431 0-40.056-4.532-52.873-13.596-12.818-9.018-21.63-23.026-26.437-42.024v0l9.613-4.12c4.578 18.54 12.429 31.404 23.553 38.591 11.078 7.233 26.46 10.849 46.144 10.849v0c21.973 0 38.293-4.234 48.959-12.703 10.62-8.469 15.931-23.461 15.931-44.977v0c0-10.071-4.624-18.998-13.871-26.78-9.293-7.782-20.623-14.42-33.99-19.913-13.413-5.493-26.757-11.101-40.032-16.824-13.276-5.722-24.537-13.047-33.784-21.973-9.293-8.927-13.939-19.227-13.94-30.9z" fill="#ffffff" fill-rule="nonzero" stroke="none" stroke-width="1" stroke-linecap="butt" stroke-linejoin="miter" stroke-miterlimit="10" stroke-dasharray="" stroke-dashoffset="0" font-family="none" font-weight="none" font-size="none" text-anchor="none" style="mix-blend-mode: normal" data-fill-palette-color="tertiary"></path></g></g><g transform="matrix(1,0,0,1,82.22414634146341,37.08)"><svg viewBox="0 0 231.07170731707316 173.04" height="173.04" width="231.07170731707316"><g><svg viewBox="0 0 231.07170731707316 173.04" height="173.04" width="231.07170731707316"><g><svg viewBox="0 0 231.0717073170732 173.04000000000002" height="173.04" width="231.07170731707316"><g><svg viewBox="0 0 231.0717073170732 173.04000000000002" height="173.04000000000002" width="231.0717073170732"><g id="textblocktransform"><svg viewBox="0 0 231.0717073170732 173.04000000000002" height="173.04000000000002" width="231.0717073170732" id="textblock"><g><svg viewBox="0 0 231.0717073170732 173.04000000000002" height="173.04000000000002" width="231.0717073170732"><g transform="matrix(1,0,0,1,0,0)"><svg width="231.0717073170732" viewBox="-0.3500000000000001 -38.5 55.75 42" height="173.04000000000002" data-palette-color="#ffffff"><path d="M3.9-26.35L3.9-26.35Q3.9-31.2 6.35-33.35 8.8-35.5 14.3-35.5L14.3-35.5Q18.15-35.5 20.5-33.5 22.85-31.5 23.9-27.4L23.9-27.4 19.25-23.9 16.8-23.9 22.2-27.95Q21.15-31.3 19.18-32.65 17.2-34 14.3-34L14.3-34Q12.3-34 10.93-33.75 9.55-33.5 8.18-32.77 6.8-32.05 6.1-30.45 5.4-28.85 5.4-26.35L5.4-26.35Q5.4-24.15 7.43-22.45 9.45-20.75 12.35-19.55 15.25-18.35 18.18-17.1 21.1-15.85 23.13-13.9 25.15-11.95 25.15-9.4L25.15-9.4Q25.15-4.4 22.68-1.95 20.2 0.5 14.2 0.5L14.2 0.5Q9.3 0.5 6.5-1.48 3.7-3.45 2.65-7.6L2.65-7.6 4.05-8.2Q5.05-4.15 7.48-2.58 9.9-1 14.2-1L14.2-1Q19-1 21.33-2.85 23.65-4.7 23.65-9.4L23.65-9.4Q23.65-11.6 21.63-13.3 19.6-15 16.68-16.2 13.75-17.4 10.85-18.65 7.95-19.9 5.93-21.85 3.9-23.8 3.9-26.35ZM48.2-18.4L45.4-16.8 44.65-18.1 47.45-19.7Q50.9-21.6 50.9-25.75L50.9-25.75Q50.9-33.5 39.1-33.5L39.1-33.5 34.5-33.5 34.5 0 33 0 33-35 39.1-35Q45.7-35 49.05-32.58 52.4-30.15 52.4-25.75L52.4-25.75Q52.4-20.75 48.2-18.4L48.2-18.4Z" opacity="1" transform="matrix(1,0,0,1,0,0)" fill="#ffffff" class="wordmark-text-0" data-fill-palette-color="primary" id="text-0"></path></svg></g></svg></g></svg></g></svg></g></svg></g></svg></g></svg></g></svg></g><defs></defs></svg><rect width="395.52" height="247.2" fill="none" stroke="none" visibility="hidden"></rect></g></svg></g></svg>